/* XPM */
static char *result[] = {
/* columns rows colors chars-per-pixel */
"32 32 77 1 ",
"  c #301E1F",
". c #151D28",
"X c #1A1E28",
"o c #2E1F22",
"O c #311F20",
"+ c #2E2023",
"@ c #242228",
"# c #332222",
"$ c #392927",
"% c #322828",
"& c #392B28",
"* c #542E16",
"= c #563017",
"- c #56321A",
"; c #58351C",
": c #5D391F",
"> c #4C3225",
", c #563522",
"< c #563826",
"1 c #5C3B24",
"2 c #533728",
"3 c #50392A",
"4 c #5E3E28",
"5 c #613E24",
"6 c #603F29",
"7 c #5F4029",
"8 c #5D4432",
"9 c #624126",
"0 c #65452A",
"q c #69472E",
"w c #67492C",
"e c #6A4A2E",
"r c #624630",
"t c #634934",
"y c #6C4E31",
"u c #634D3A",
"i c #6E5133",
"p c #66513E",
"a c #68513B",
"s c #715436",
"d c #735837",
"f c #735738",
"g c #755A3B",
"h c #795E3E",
"j c #7B603F",
"k c #675441",
"l c #695542",
"z c #6D5945",
"x c #6D5B49",
"c c #715C46",
"v c #7A5F40",
"b c #725D49",
"n c #7C6241",
"m c #74614D",
"M c #776651",
"N c #796752",
"B c #7A6A54",
"V c #7E6E59",
"C c #7F715E",
"Z c #806645",
"A c #826847",
"S c #806649",
"D c #846A4B",
"F c #886D4C",
"G c #8B714F",
"H c #806C57",
"J c #826F5C",
"K c #8C7353",
"L c #81715E",
"P c #8F7658",
"I c #937B5B",
"U c #847563",
"Y c #887563",
"T c #867866",
"R c #877968",
"E c #8D806F",
"W c #8E8171",
/* pixels */
"........Xoootyi5yyy@oo..........",
"........<fMtFKF9FFF5i6>.........",
"......%5GPIsIIIeIIP9ZZd:@.......",
".....&nfPKGyngh9hhj0gDDqt$......",
"....XfGvdAZennhehnnejjjfv0......",
"....2ZSygAZynhZejZjijnjyvc>.....",
"...@qDgyZZZinnZejjZynnjdvS4o....",
"..X$ShginZZinhZeZjjinnjdjvDO....",
"...$vggsnnhihnnyZjZifjnfjhS#X...",
"...#6900yqYqvvnyZZjeLt09095#....",
"...#cNBHLJHHfhneZndJHLBBNmb ....",
"...#yccbmMBthvnyZnn0Nmcxxza#....",
"...#115:59qyhhvyZnner999555#....",
"...#sfdehjyihhvyZnjiivjifss#....",
"...%yffehhgyhhheAjjijhhsfssO....",
"...#ssfsnhgihhhyAnjsjhgsffsO....",
"...#idfihggsgfjeZvnshgjiifi%....",
"...+isfihgdigimmnshshhgidii#....",
"...#yfsihgdig9MMN9hshggeiii#....",
"...+issihssig4b;b1gshggeiiy#....",
"...+yssihssyg1aaa:gigggeiiy#....",
"...+5999q9Neds7-5sgyN005511#....",
"...+cMNVLLVbsdswgfsbBHBNMMcO....",
"...+uzcmmMNpidd0sfipMmcxxzaO....",
"...+*---;;p1dss0fdi7t---===#....",
"...+wyy9iiwwsss7diiwegs0ee0O....",
"...+yiiwaii0sif1isi0hgg0yy0o....",
"...+,449777114<-1714444<1,,#....",
"...oMVCUCCTTTTE8WRRCUCCCVCB ....",
"...oukkkllxxxxm<mxmxxlllkpuO....",
"...+ukkkkllxlxm3xxxxlllkkut+....",
"...+888uk8kk8kk3lpkkkuuuut8#...."
};
