/* XPM */
static char *result[] = {
/* columns rows colors chars-per-pixel */
"32 32 25 1 ",
"  c #0A0F17",
". c #0C121A",
"X c #0E151E",
"o c #121923",
"O c #141B26",
"+ c #151D28",
"@ c #262B44",
"# c #68386C",
"$ c #B86F50",
"% c #D77643",
"& c #9D8F74",
"* c #AD9D7F",
"= c #CF9768",
"- c #DA9F6D",
"; c #E4A672",
": c #B55088",
"> c #ABACAD",
", c #BCBDBE",
"< c #E0CBA3",
"1 c #EAD4AA",
"2 c #B7C2D2",
"3 c #CBCCCC",
"4 c #C0CBDC",
"5 c #F4F4F4",
"6 c white",
/* pixels */
"++++++++++++++++++++++++++++++++",
"++++++++++++++++++++++++++++++++",
"++++++++++++++++++++++++++++++++",
"++++++++++++++++++++++++++++++++",
"++++++++++++++++++++++++++++++++",
"+++++++++++++&===X++++++++++++++",
"++++++++++++&-;;;-X+++++++++++++",
"++++++++++++*;;;;;.+++++++++++++",
"+++++++++++><111;%2X++++++++++++",
"+++++++++++,;11%%$4.++++++++++++",
"+++++++++++,6;;$$44.++++++++++++",
"+++++++++++,6666444.++++++++++++",
"++++++++++>5:6664#42X+++++++++++",
"+++++++++>5:::64###42X++++++++++",
"+++++++++,6::::####44.++++++++++",
"++++++++>5:::::#####42X+++++++++",
"++++++++,6#6:::####@44.+++++++++",
"++++++++,6##66:###@@44.+++++++++",
"++++++++,6####:#@@@@44.+++++++++",
"++++++++O36####@@@@44 O+++++++++",
"+++++++++,6####@@@@44.++++++++++",
"+++++++++O36###@@@44 O++++++++++",
"++++++++++O36##@@44 O+++++++++++",
"+++++++++++Oo3644 oO++++++++++++",
"+++++++++++++OoooO++++++++++++++",
"++++++++++++++++++++++++++++++++",
"++++++++++++++++++++++++++++++++",
"++++++++++++++++++++++++++++++++",
"++++++++++++++++++++++++++++++++",
"++++++++++++++++++++++++++++++++",
"++++++++++++++++++++++++++++++++",
"++++++++++++++++++++++++++++++++"
};
