/* XPM */
static char *result[] = {
/* columns rows colors chars-per-pixel */
"32 32 14 1 ",
"  c #18181A",
". c #1D1D1C",
"X c #151D28",
"o c #252525",
"O c #3E373D",
"+ c #44563E",
"@ c #625353",
"# c #8B5B37",
"$ c #897A71",
"% c #BEB050",
"& c #C5C57F",
"* c #53BF83",
"= c #B5A793",
"- c #DAD4BC",
/* pixels */
"XXXXXXXXXXXXXXXXXXXXXXXXXXXXXXXX",
"XXXXXXXXXX......XXXXXXXX......XX",
"XXXXXXXXXX......XXXXXXXX......XX",
"XXXXXXXX..======..XXXX..------..",
"XXXXXXXX..======..XXXX..------..",
"XXXXXX..==$$==$$==..XX..@@--@@..",
"XXXXXX..==$$==$$==..XX..@@--@@..",
"XXXX..==$$==$$OO$$..XX..==@@==..",
"XXXX..==$$==$$OO$$..XX..==@@==..",
"XX..==$$@@$$**  **..XX..++==++..",
"XX..==$$@@$$**  **..XX..++==++..",
"XX..==@@OO$$OO  OO..XXXX..++..XX",
"XX..==@@OO$$OO  OO..XXXX..++..XX",
"..==$$OO==$$OO  OO..XXXX..##..XX",
"..==$$OO==$$OO  OO..XXXX..##..XX",
"XX..OO==$$@@$$OO$$@@..XX..##..XX",
"XX..OO==$$@@$$OO$$@@..XX..##..XX",
"XXXX..$$@@OO@@$$@@OO&&....##..XX",
"XXXX..$$@@OO@@$$@@OO&&....##..XX",
"XXXX..@@&&ooOO@@OO....&&..##..XX",
"XXXX..@@&&ooOO@@OO....&&..##..XX",
"XXXX..OO%%&&&&OO..XXXX....##..XX",
"XXXX..OO%%&&&&OO..XXXX....##..XX",
"XXXX..@@OO@@OOOO..XXXXXX..##..XX",
"XXXX..@@OO@@OOOO..XXXXXX..##..XX",
"XXXX..OO@@OOOOoo..XXXXXX..##..XX",
"XXXX..OO@@OOOOoo..XXXXXX..##..XX",
"XXXX..@@OOOOoooo..XXXXXX..##..XX",
"XXXX..@@OOOOoooo..XXXXXX..##..XX",
"XX..@@OOOOoooo  ....XXXX..##..XX",
"XX..@@OOOOoooo  ....XXXX..##..XX",
"XXXXXXXXXXXXXXXXXXXXXXXXXXXXXXXX"
};
