/* XPM */
static char *e6b4c3af26ef4598f82979e2fd711672DzcGgzCBnHnvvIM8[] = {
/* columns rows colors chars-per-pixel */
"32 32 86 1 ",
"  c #381F1B",
". c #35201F",
"X c #1C1E27",
"o c #151D28",
"O c #2D1F23",
"+ c #301F21",
"@ c #1D2028",
"# c #2D2123",
"$ c #262228",
"% c #322223",
"& c #3B2723",
"* c #372826",
"= c #3C2A26",
"- c #4A2718",
"; c #4D2B1A",
": c #522C14",
"> c #502E1B",
", c #54321C",
"< c #5A371D",
"1 c #5C391F",
"2 c #46342B",
"3 c #483329",
"4 c #553622",
"5 c #5C3B22",
"6 c #573D2C",
"7 c #5A3E2B",
"8 c #613E24",
"9 c #59402E",
"0 c #5C4634",
"q c #5F4835",
"w c #624226",
"e c #64452C",
"r c #69462B",
"t c #67492D",
"y c #6A4B2F",
"u c #624734",
"i c #6B4E32",
"p c #634D3B",
"a c #704F33",
"s c #6E5135",
"d c #64503E",
"f c #6D533C",
"g c #735335",
"h c #72573A",
"j c #765A3C",
"k c #795C3D",
"l c #675341",
"z c #6B5541",
"x c #6B5946",
"c c #6D5B49",
"v c #745D47",
"b c #7A5F41",
"n c #715E4A",
"m c #7C6243",
"M c #7E6446",
"N c #75614B",
"B c #70604D",
"V c #766350",
"C c #7D6953",
"Z c #7B6956",
"A c #7D6A56",
"S c #7B6C5B",
"D c #7F6C58",
"F c #806647",
"G c #826749",
"H c #826849",
"J c #856B4D",
"K c #866D4D",
"L c #886F4F",
"P c #89704F",
"I c #816F5B",
"U c #897151",
"Y c #8B7354",
"T c #8C7354",
"R c #8D7557",
"E c #8F7856",
"W c #82715D",
"Q c #8F795C",
"! c #90795B",
"~ c #917A5D",
"^ c #947D5F",
"/ c #897763",
"( c #968060",
") c #9A8361",
"_ c #9B8465",
"` c #9C8566",
/* pixels */
"ooooo3KM,oooooooooooooiUH2oooooo",
"ooooXfKm,oooooooooooooyPLfoooooo",
"oooo@MKb,oooooooooooooeURbXooooo",
"oooo6UUm,oooooooooooooeE!U6ooooo",
"ooooe!Ui,oooooooooooooem)!eooooo",
"ooooe^Yi>oooooooooooooym_^eooooo",
"ooo$v~Yi>ooooooooooooorm`^j$oooo",
"ooo=~Rhi>oooooooooooooeMJ)T*oooo",
"ooo=~Ysi;oooooooooooooeFG(U*oooo",
"ooo=QUiw;oooooooooooooekF^K*oooo",
"ooo=hs,7;ooooooooooooo8vika*oooo",
"ooo=AIlw;ooooooooooooo8yW/D*oooo",
"ooo=vN5t;ooooooooooooo5kiCN%oooo",
"ooo=1<yy;ooooooooooooo5Fjr8%oooo",
"ooo=mbit;ooooooooooooo5mMKb%oooo",
"ooo=Mmi1u%ooooooooooo&AiMKb%oooo",
"ooo=Mkt19%ooooooooooo&nymHj%oooo",
"ooo*mjt<9%ooooooooooo&nykHj%oooo",
"ooo*mjew;ooooooooooooo4jkFh#oooo",
"ooo*bjew-ooooooooooooo,gjMh#oooo",
"ooo*bhww-ooooooooooooo>ggms#oooo",
"ooo*khw5-ooooooooooooo>ztms#oooo",
"ooo%si,7-ooooooooooooo;upse#oooo",
"ooo%VZp<-ooooooooooooo>8xZnOoooo",
"ooo%zn7:0%ooooooooooo.c15nz#oooo",
"ooo%,,<,9%ooooooooooo%p5w,,#oooo",
"ooo%ss569%ooooooooooo%p0yjy#oooo",
"ooo%jh56-ooooooooooooo;pyki#oooo",
"ooo%55>0-ooooooooooooo;B,55#oooo",
"ooo+nVd4XoooooooooooooXqSnzOoooo",
"ooo%cx04XoooooooooooooXqSlp#oooo",
"ooo%cx0%ooooooooooooooo Zlp#oooo"
};
