/* XPM */
static char *f26c74102bc84789ebdca239c52d058facrINmvgHwiX4b6Z[] = {
/* columns rows colors chars-per-pixel */
"32 32 28 1 ",
"  c #1D1D1C",
". c #151D28",
"X c #4F291C",
"o c #4B0C30",
"O c #681A2F",
"+ c #5A4143",
"@ c #504261",
"# c #891A37",
"$ c #81173F",
"% c #AC162D",
"& c #D31212",
"* c #A15735",
"= c #CD7900",
"- c #F26E26",
"; c #AA1E42",
": c #C74453",
"> c #E84444",
", c #E17676",
"< c #FFDC04",
"1 c #FFC02A",
"2 c #CB804A",
"3 c #C7935D",
"4 c #CA867A",
"5 c #745888",
"6 c #EA7E82",
"7 c #789EEC",
"8 c #DAB580",
"9 c #F3E7A8",
/* pixels */
"................................",
".........      ......  .........",
".........      ......  .........",
".......  66,,::  ..  --  .......",
".......  66,,::  ..  --  .......",
".....  66::::;;##  -->>&&  .....",
".....  66::::;;##  -->>&&  .....",
".....  66779977##XX>><<%%  .....",
".....  66779977##XX>><<%%  .....",
".....  66889988##XX<<11<<  .....",
".....  66889988##XX<<11<<  .....",
".....  66884444;;OOXX33  .......",
".....  66884444;;OOXX33  .......",
"...  66,,;;::;;8888XX33  .......",
"...  66,,;;::;;8888XX33  .......",
"...  ,,99OO;;55$$##XX==  .......",
"...  ,,99OO;;55$$##XX==  .......",
"...  ,,88999955$$;;oo  .........",
"...  ,,88999955$$;;oo  .........",
"...  ::;;$$55@@$$;;  ...........",
"...  ::;;$$55@@$$;;  ...........",
"...  ::;;**22**$$;;  ...........",
"...  ::;;**22**$$;;  ...........",
"...  ::;;++++++$$;;  ...........",
"...  ::;;++++++$$;;  ...........",
"...  ::++++oo++$$  .............",
"...  ::++++oo++$$  .............",
".....  XXoo  XX  ...............",
".....  XXoo  XX  ...............",
".....  ::  ..  ;;  .............",
".....  ::  ..  ;;  .............",
"................................"
};
