/* XPM */
static char *_97d80b429c947528e5a383979eb9e6b7hA3taGwDvGVoLah[] = {
/* columns rows colors chars-per-pixel */
"32 32 27 1 ",
"  c #56321C",
". c #4F3625",
"X c #543523",
"o c #543624",
"O c #553827",
"+ c #573928",
"@ c #573C2D",
"# c #573F30",
"$ c #583F30",
"% c #584132",
"& c #5A4537",
"* c #5B473A",
"= c #5B483B",
"- c #5B493C",
"; c #5C4B3E",
": c #5C4B40",
"> c #5D4D41",
", c #5E4F44",
"< c #5C5247",
"1 c #5F5349",
"2 c #655C55",
"3 c #665F58",
"4 c #676159",
"5 c #69645C",
"6 c #6C675F",
"7 c #6C685F",
"8 c #726E69",
/* pixels */
"<<<<<<<1<<<<<<<<<<<<<<<<<<<<<<<.",
"<<<<<<<<<<<<<<<<<<<<<<<<<<<<<<<.",
"4444444444444444444444444444444%",
"4444444444444444444444444444444o",
"O$111111<<<<<>>><<<11111111%%@+o",
"88888888888888>66666666666666666",
"44444444444444>44444444444444444",
"44444444444444>44444444444444444",
"44444444444444>44444444444444444",
"44444444444444>44444444444444444",
"44444444444444>44444444444444444",
"44444444444444%44444444444444444",
"44444444444444#44444444444444444",
"--*11111===@@oXo@11111111111*=->",
"6666666655555555555555557777766:",
"3333333333333333333333333333333;",
"3333333333333333333333333333333;",
"2333333333333333333333333333333,",
"2333333333333333333333333333333,",
"3333333333333333333333333333333,",
"3333333333333333333333333333333X",
"3333333333323333333333333333333X",
"XX>>>>>>111;;-;;<<<<>>>>>>>>XXXX",
"66666666666666;66666666666666666",
"33333333333333;33333333333333333",
"33333333333333&@3333333333333333",
"33333333333333*@333333@333333333",
"33333333333333**@3333@6333333333",
"33333333333333%11-@@@63333333333",
"33333333333333%11<-@633333333333",
"33333333333333%<1<--@33333333333",
"              +         3       "
};
